<svg xmlns="http://www.w3.org/2000/svg" xmlns:xlink="http://www.w3.org/1999/xlink" width="220" zoomAndPan="magnify" viewBox="0 0 165 30.000001" height="40" preserveAspectRatio="xMidYMid meet" version="1.0"><defs><g/></defs><g fill="#348cf6" fill-opacity="1"><g transform="translate(47.912544, 20.526137)"><g><path d="M 5.5 -18.296875 L 5.5 -3.65625 L 11.796875 -3.65625 L 11.796875 0 L 1.328125 0 L 1.328125 -18.296875 Z M 5.5 -18.296875 "/></g></g></g><g fill="#348cf6" fill-opacity="1"><g transform="translate(58.557027, 20.526137)"><g><path d="M 12.84375 -5.140625 L 4.59375 -5.140625 C 4.59375 -4.347656 4.847656 -3.757812 5.359375 -3.375 C 5.878906 -2.988281 6.445312 -2.796875 7.0625 -2.796875 C 7.695312 -2.796875 8.195312 -2.878906 8.5625 -3.046875 C 8.9375 -3.222656 9.359375 -3.5625 9.828125 -4.0625 L 12.671875 -2.640625 C 11.484375 -0.660156 9.515625 0.328125 6.765625 0.328125 C 5.046875 0.328125 3.570312 -0.253906 2.34375 -1.421875 C 1.125 -2.597656 0.515625 -4.015625 0.515625 -5.671875 C 0.515625 -7.335938 1.125 -8.757812 2.34375 -9.9375 C 3.570312 -11.125 5.046875 -11.71875 6.765625 -11.71875 C 8.566406 -11.71875 10.035156 -11.195312 11.171875 -10.15625 C 12.304688 -9.113281 12.875 -7.625 12.875 -5.6875 C 12.875 -5.414062 12.863281 -5.234375 12.84375 -5.140625 Z M 4.703125 -7.328125 L 9.03125 -7.328125 C 8.9375 -7.910156 8.703125 -8.359375 8.328125 -8.671875 C 7.953125 -8.992188 7.46875 -9.15625 6.875 -9.15625 C 6.226562 -9.15625 5.710938 -8.984375 5.328125 -8.640625 C 4.941406 -8.304688 4.734375 -7.867188 4.703125 -7.328125 Z M 4.703125 -7.328125 "/></g></g></g><g fill="#348cf6" fill-opacity="1"><g transform="translate(70.044237, 20.526137)"><g><path d="M 2.109375 -1.40625 C 1.046875 -2.570312 0.515625 -3.992188 0.515625 -5.671875 C 0.515625 -7.359375 1.046875 -8.785156 2.109375 -9.953125 C 3.171875 -11.128906 4.523438 -11.71875 6.171875 -11.71875 C 7.679688 -11.71875 8.921875 -11.242188 9.890625 -10.296875 L 9.890625 -19.078125 L 13.828125 -19.078125 L 13.828125 0 L 9.9375 0 L 9.9375 -1.28125 L 9.890625 -1.28125 C 8.921875 -0.207031 7.679688 0.328125 6.171875 0.328125 C 4.523438 0.328125 3.171875 -0.25 2.109375 -1.40625 Z M 5.453125 -7.609375 C 4.941406 -7.109375 4.6875 -6.460938 4.6875 -5.671875 C 4.6875 -4.890625 4.925781 -4.25 5.40625 -3.75 C 5.894531 -3.257812 6.539062 -3.015625 7.34375 -3.015625 C 8.113281 -3.015625 8.742188 -3.265625 9.234375 -3.765625 C 9.734375 -4.273438 9.984375 -4.914062 9.984375 -5.6875 C 9.984375 -6.46875 9.726562 -7.109375 9.21875 -7.609375 C 8.707031 -8.109375 8.082031 -8.359375 7.34375 -8.359375 C 6.59375 -8.359375 5.960938 -8.109375 5.453125 -7.609375 Z M 5.453125 -7.609375 "/></g></g></g><g fill="#348cf6" fill-opacity="1"><g transform="translate(83.305621, 20.526137)"><g><path d="M 0.828125 2.796875 L 4.03125 1.21875 C 4.625 2.195312 5.65625 2.6875 7.125 2.6875 C 7.800781 2.6875 8.429688 2.46875 9.015625 2.03125 C 9.597656 1.59375 9.890625 0.921875 9.890625 0.015625 L 9.890625 -0.828125 C 9.203125 -0.0546875 7.960938 0.328125 6.171875 0.328125 C 4.523438 0.328125 3.171875 -0.25 2.109375 -1.40625 C 1.046875 -2.570312 0.515625 -3.992188 0.515625 -5.671875 C 0.515625 -7.359375 1.046875 -8.785156 2.109375 -9.953125 C 3.171875 -11.128906 4.523438 -11.71875 6.171875 -11.71875 C 7.628906 -11.71875 8.847656 -11.265625 9.828125 -10.359375 L 9.890625 -10.359375 L 9.890625 -11.375 L 13.828125 -11.375 L 13.828125 0.3125 C 13.828125 2.15625 13.210938 3.578125 11.984375 4.578125 C 10.753906 5.585938 9.132812 6.09375 7.125 6.09375 C 3.863281 6.09375 1.765625 4.992188 0.828125 2.796875 Z M 5.453125 -7.609375 C 4.941406 -7.109375 4.6875 -6.460938 4.6875 -5.671875 C 4.6875 -4.890625 4.925781 -4.25 5.40625 -3.75 C 5.894531 -3.257812 6.539062 -3.015625 7.34375 -3.015625 C 8.113281 -3.015625 8.742188 -3.265625 9.234375 -3.765625 C 9.734375 -4.273438 9.984375 -4.914062 9.984375 -5.6875 C 9.984375 -6.46875 9.726562 -7.109375 9.21875 -7.609375 C 8.707031 -8.109375 8.082031 -8.359375 7.34375 -8.359375 C 6.59375 -8.359375 5.960938 -8.109375 5.453125 -7.609375 Z M 5.453125 -7.609375 "/></g></g></g><g fill="#348cf6" fill-opacity="1"><g transform="translate(96.567004, 20.526137)"><g><path d="M 12.84375 -5.140625 L 4.59375 -5.140625 C 4.59375 -4.347656 4.847656 -3.757812 5.359375 -3.375 C 5.878906 -2.988281 6.445312 -2.796875 7.0625 -2.796875 C 7.695312 -2.796875 8.195312 -2.878906 8.5625 -3.046875 C 8.9375 -3.222656 9.359375 -3.5625 9.828125 -4.0625 L 12.671875 -2.640625 C 11.484375 -0.660156 9.515625 0.328125 6.765625 0.328125 C 5.046875 0.328125 3.570312 -0.253906 2.34375 -1.421875 C 1.125 -2.597656 0.515625 -4.015625 0.515625 -5.671875 C 0.515625 -7.335938 1.125 -8.757812 2.34375 -9.9375 C 3.570312 -11.125 5.046875 -11.71875 6.765625 -11.71875 C 8.566406 -11.71875 10.035156 -11.195312 11.171875 -10.15625 C 12.304688 -9.113281 12.875 -7.625 12.875 -5.6875 C 12.875 -5.414062 12.863281 -5.234375 12.84375 -5.140625 Z M 4.703125 -7.328125 L 9.03125 -7.328125 C 8.9375 -7.910156 8.703125 -8.359375 8.328125 -8.671875 C 7.953125 -8.992188 7.46875 -9.15625 6.875 -9.15625 C 6.226562 -9.15625 5.710938 -8.984375 5.328125 -8.640625 C 4.941406 -8.304688 4.734375 -7.867188 4.703125 -7.328125 Z M 4.703125 -7.328125 "/></g></g></g><g fill="#348cf6" fill-opacity="1"><g transform="translate(108.054215, 20.526137)"><g><path d="M 1.328125 0 L 1.328125 -11.375 L 5.265625 -11.375 L 5.265625 -9.734375 L 5.296875 -9.734375 C 5.328125 -9.796875 5.375 -9.867188 5.4375 -9.953125 C 5.507812 -10.046875 5.65625 -10.203125 5.875 -10.421875 C 6.101562 -10.648438 6.34375 -10.851562 6.59375 -11.03125 C 6.84375 -11.207031 7.164062 -11.363281 7.5625 -11.5 C 7.96875 -11.644531 8.375 -11.71875 8.78125 -11.71875 C 9.207031 -11.71875 9.628906 -11.65625 10.046875 -11.53125 C 10.460938 -11.414062 10.765625 -11.300781 10.953125 -11.1875 L 11.265625 -11 L 9.625 -7.671875 C 9.132812 -8.085938 8.457031 -8.296875 7.59375 -8.296875 C 7.113281 -8.296875 6.703125 -8.191406 6.359375 -7.984375 C 6.023438 -7.773438 5.785156 -7.523438 5.640625 -7.234375 C 5.503906 -6.941406 5.40625 -6.691406 5.34375 -6.484375 C 5.289062 -6.273438 5.265625 -6.109375 5.265625 -5.984375 L 5.265625 0 Z M 1.328125 0 "/></g></g></g><path stroke-linecap="butt" transform="matrix(0.232822, 0, 0, 0.232822, 36.503091, 25.400649)" fill="none" stroke-linejoin="miter" d="M 0.00350319 5.007073 L 84.429569 5.007073 " stroke="#348cf6" stroke-width="10" stroke-opacity="1" stroke-miterlimit="4"/><path stroke-linecap="butt" transform="matrix(0, 0.232822, -0.232822, 0, 38.830119, 7.832303)" fill="none" stroke-linejoin="miter" d="M -0.00116756 5.008358 L 82.461892 5.008358 " stroke="#348cf6" stroke-width="10" stroke-opacity="1" stroke-miterlimit="4"/><path stroke-linecap="butt" transform="matrix(-0.232822, 0, 0, -0.232822, 128.492479, 3.625486)" fill="none" stroke-linejoin="miter" d="M 0.00125258 5.001884 L 84.427319 5.001884 " stroke="#348cf6" stroke-width="10" stroke-opacity="1" stroke-miterlimit="4"/><path stroke-linecap="butt" transform="matrix(0, -0.232822, 0.232822, 0, 126.165462, 21.193832)" fill="none" stroke-linejoin="miter" d="M -0.00635947 4.993782 L 82.4567 4.993782 " stroke="#348cf6" stroke-width="10" stroke-opacity="1" stroke-miterlimit="4"/></svg>